<?xml version="1.0" encoding="UTF-8" standalone="no"?>
<svg
   xmlns:dc="http://purl.org/dc/elements/1.1/"
   xmlns:cc="http://creativecommons.org/ns#"
   xmlns:rdf="http://www.w3.org/1999/02/22-rdf-syntax-ns#"
   xmlns:svg="http://www.w3.org/2000/svg"
   xmlns="http://www.w3.org/2000/svg"
   xmlns:sodipodi="http://sodipodi.sourceforge.net/DTD/sodipodi-0.dtd"
   xmlns:inkscape="http://www.inkscape.org/namespaces/inkscape"
   version="1.1"
   id="StrixEye"
   x="0px"
   y="0px"
   viewBox="0 0 595.276 549.052"
   enable-background="new 0 0 595.276 549.052"
   xml:space="preserve"
   sodipodi:docname="strixeye_icon-purple-bg-white.svg"
   inkscape:version="1.0.1 (3bc2e813f5, 2020-09-07)"><metadata
   id="metadata14"><rdf:RDF><cc:Work
       rdf:about=""><dc:format>image/svg+xml</dc:format><dc:type
         rdf:resource="http://purl.org/dc/dcmitype/StillImage" /><dc:title /></cc:Work></rdf:RDF></metadata><defs
   id="defs12" /><sodipodi:namedview
   pagecolor="#ffffff"
   bordercolor="#666666"
   borderopacity="1"
   objecttolerance="10"
   gridtolerance="10"
   guidetolerance="10"
   inkscape:pageopacity="0"
   inkscape:pageshadow="2"
   inkscape:window-width="2560"
   inkscape:window-height="1080"
   id="namedview10"
   showgrid="false"
   inkscape:zoom="1.3022446"
   inkscape:cx="175.15717"
   inkscape:cy="274.526"
   inkscape:window-x="0"
   inkscape:window-y="0"
   inkscape:window-maximized="1"
   inkscape:current-layer="StrixEye"
   inkscape:document-rotation="0" />
<linearGradient
   id="SVGID_1_"
   gradientUnits="userSpaceOnUse"
   x1="-1.833132e-007"
   y1="274.5258"
   x2="595.2756"
   y2="274.5258"
   gradientTransform="matrix(0.78006841,0,0,0.7222181,69.788798,98.016885)">
	<stop
   offset="0"
   style="stop-color:#7657A4"
   id="stop2" />
	<stop
   offset="1"
   style="stop-color:#6F57A4"
   id="stop4" />
</linearGradient>

<rect
   style="fill:#ffffff;fill-rule:evenodd"
   id="rect16"
   width="597.86493"
   height="552.81903"
   x="-0.3488965"
   y="-1.1797422" /><path
   fill="url(#SVGID_1_)"
   d="M 362.98531,250.58544 333.69765,273.07821 302.11502,255.83597 270.76251,273.05582 241.72524,250.91044 69.788798,98.016875 115.82297,215.89658 l 1.77934,4.85765 141.93814,68.52405 41.81635,202.35684 0.62249,2.91704 42.91936,-205.73322 141.21503,-67.94194 0.21608,-0.10472 1.77699,-4.8468 46.03808,-117.891275 z m -231.74662,-40.47526 -21.73972,-55.75523 41.10336,36.63089 c -2.23568,3.14526 -3.73653,7.31101 -3.73653,11.07377 0,10.61372 9.3265,19.24856 20.79117,19.24856 4.46667,0 8.92164,-1.50728 12.51464,-3.96715 l 39.94417,35.55697 z m 170.73046,201.88234 -25.77425,-124.31107 25.9014,-14.19808 25.99656,14.19808 z m 170.98243,-201.87585 -88.24916,42.55309 39.27254,-35.0998 c 3.593,2.45988 7.83423,3.75771 12.30012,3.75771 11.46391,0 20.79041,-8.63556 20.79041,-19.24928 0,-3.76348 -1.43766,-7.74652 -3.67256,-10.89106 l 41.22662,-36.83095 z"
   id="path7"
   style="fill:url(#SVGID_1_);stroke-width:0.750586" /></svg>
